<svg height="512pt" viewBox="-20 0 512 512" width="512pt" fill="#ffffff" xmlns="http://www.w3.org/2000/svg"><path d="m464.796875 0h-337.59375c-4.199219 0-7.601563 3.40625-7.601563 7.605469v316.273437h-111.996093c-4.203125 0-7.605469 3.402344-7.605469 7.601563v85.027343c0 4.199219 3.402344 7.605469 7.605469 7.605469 4.199219 0 7.601562-3.40625 7.601562-7.605469v-77.421874h56.320313v157.707031h-56.320313v-49.867188c0-4.199219-3.402343-7.601562-7.601562-7.601562-4.203125 0-7.605469 3.402343-7.605469 7.601562v57.46875c0 4.199219 3.402344 7.605469 7.605469 7.605469h457.191406c4.203125 0 7.605469-3.40625 7.605469-7.605469v-496.789062c0-4.199219-3.402344-7.605469-7.605469-7.605469zm-53.835937 50.691406h-229.917969l-35.484375-35.484375h300.886718zm-197.777344 288.394532-47.59375 19.367187-47.597656-19.367187zm-78.375-313.121094 35.484375 35.484375v262.429687h-35.484375zm-48.074219 316.820312 75.988281 30.921875c.917969.375 1.894532.558594 2.867188.558594s1.945312-.183594 2.863281-.558594l75.988281-30.921875v154.007813h-157.707031zm334.976563 154.007813v-364.980469c0-4.199219-3.40625-7.601562-7.605469-7.601562s-7.605469 3.402343-7.605469 7.601562v364.980469h-146.851562v-165.3125c0-4.199219-3.402344-7.601563-7.605469-7.601563h-66.542969v-257.976562h221v35.492187c0 4.199219 3.40625 7.605469 7.605469 7.605469s7.601562-3.40625 7.601562-7.605469v-39.945312l35.488281-35.480469v470.824219zm0 0"/><path d="m266.398438 284.292969c-5.894532 2.355469-14.230469-.535157-23.054688-3.59375-13.90625-4.824219-31.210938-10.824219-45.5625 3.523437-2.96875 2.972656-2.96875 7.785156 0 10.753906 2.972656 2.96875 7.785156 2.972657 10.753906 0 7.246094-7.242187 16.054688-4.683593 29.824219.089844 7.585937 2.632813 15.347656 5.324219 23.070313 5.324219 3.554687 0 7.097656-.570313 10.613281-1.976563 3.902343-1.558593 5.796875-5.984374 4.238281-9.886718-1.558594-3.898438-5.988281-5.792969-9.882812-4.234375zm0 0"/><path d="m183.675781 436.285156 7.339844-7.339844v44.734376c0 4.199218 3.402344 7.605468 7.601563 7.605468 4.203124 0 7.605468-3.40625 7.605468-7.605468v-44.734376l7.339844 7.339844c1.484375 1.484375 3.429688 2.226563 5.375 2.226563s3.894531-.742188 5.378906-2.226563c2.96875-2.972656 2.96875-7.785156 0-10.753906l-20.320312-20.320312c-1.425782-1.425782-3.359375-2.226563-5.378906-2.226563-2.015626 0-3.949219.800781-5.375 2.226563l-20.320313 20.320312c-2.96875 2.96875-2.96875 7.785156 0 10.753906s7.785156 2.96875 10.753906 0zm0 0"/><path d="m132.558594 481.285156c4.199218 0 7.601562-3.402344 7.601562-7.601562v-44.738282l7.339844 7.339844c2.96875 2.96875 7.785156 2.96875 10.753906 0s2.96875-7.785156 0-10.753906l-20.320312-20.320312c-2.96875-2.96875-7.785156-2.96875-10.753906 0l-20.320313 20.320312c-2.96875 2.96875-2.96875 7.785156 0 10.753906 1.484375 1.484375 3.429687 2.226563 5.378906 2.226563 1.945313 0 3.890625-.742188 5.375-2.226563l7.339844-7.339844v44.738282c0 4.199218 3.40625 7.601562 7.605469 7.601562zm0 0"/></svg>