<svg id="Capa_1" enable-background="new 0 0 511.998 511.998" height="512" viewBox="0 0 511.998 511.998" fill="#ffffff" width="512" xmlns="http://www.w3.org/2000/svg"><path d="m428.581 256.415 66.362-66.043c12.186-12.127 17.89-30.545 16.956-54.744-1.36-35.207-15.974-68.395-41.15-93.449-25.158-25.038-58.473-39.571-93.807-40.922-24.264-.928-42.732 4.739-54.897 16.845l-65.63 65.314-66.043-66.362c-12.126-12.184-30.527-17.89-54.743-16.955-35.207 1.36-68.395 15.974-93.449 41.15-25.038 25.158-39.572 58.473-40.923 93.807-.927 24.264 4.74 42.733 16.844 54.895l65.308 65.639-66.354 66.035c-12.186 12.127-17.89 30.545-16.956 54.744 1.36 35.207 15.974 68.395 41.15 93.449 25.158 25.038 58.473 39.571 93.807 40.922 1.709.065 3.388.098 5.039.098 21.794 0 38.551-5.69 49.858-16.943l65.63-65.314 66.043 66.362c11.273 11.328 27.979 17.055 49.716 17.055 1.646 0 3.324-.033 5.027-.099 35.207-1.36 68.395-15.974 93.449-41.15 25.038-25.158 39.571-58.473 40.923-93.807.927-24.263-4.74-42.733-16.846-54.896zm-389.215-87.624c-7.463-7.499-8.541-21.861-8.131-32.588 2.193-57.309 48.556-103.926 105.552-106.127 10.637-.41 24.885.668 32.321 8.14l66.042 66.361-130.477 129.85zm129.425 303.841c-7.501 7.464-21.861 8.54-32.589 8.131-57.308-2.193-103.925-48.556-106.125-105.552-.411-10.64.667-24.885 8.14-32.321l304.99-303.523c6.632-6.6 18.626-8.206 28.731-8.206 1.323 0 2.615.028 3.857.075 57.309 2.192 103.925 48.555 106.125 105.551.411 10.641-.667 24.885-8.14 32.321zm311.972-96.836c-2.192 57.309-48.556 103.925-105.552 106.126-10.634.412-24.885-.667-32.321-8.14l-66.042-66.361 130.47-129.843 65.314 65.63c7.463 7.499 8.541 21.861 8.131 32.588z"/><path d="m167.914 246.261c-5.405 5.379-5.405 14.101 0 19.48s14.169 5.379 19.574 0 5.405-14.101 0-19.48-14.169-5.379-19.574 0z"/><ellipse cx="216.851" cy="217.039" rx="13.841" ry="13.774"/><ellipse cx="256.002" cy="178.078" rx="13.841" ry="13.774"/><path d="m207.062 285.221c-5.405 5.379-5.405 14.101 0 19.48s14.168 5.379 19.574 0c5.405-5.379 5.405-14.101 0-19.48-5.406-5.379-14.169-5.379-19.574 0z"/><ellipse cx="255.999" cy="255.999" rx="13.841" ry="13.774"/><path d="m304.936 226.777c5.405-5.379 5.405-14.101 0-19.48s-14.168-5.379-19.574 0c-5.405 5.379-5.405 14.101 0 19.48 5.406 5.379 14.169 5.379 19.574 0z"/><ellipse cx="255.997" cy="333.92" rx="13.841" ry="13.774"/><path d="m304.934 304.698c5.405-5.379 5.405-14.101 0-19.48s-14.168-5.379-19.574 0c-5.405 5.379-5.405 14.101 0 19.48s14.169 5.379 19.574 0z"/><ellipse cx="334.297" cy="255.996" rx="13.841" ry="13.774"/></svg>